<?xml version="1.0" standalone="no"?>
<!DOCTYPE svg PUBLIC "-//W3C//DTD SVG 20010904//EN"
 "http://www.w3.org/TR/2001/REC-SVG-20010904/DTD/svg10.dtd">
<svg version="1.0" xmlns="http://www.w3.org/2000/svg"
 width="512.000000pt" height="512.000000pt" viewBox="0 0 512.000000 512.000000"
 preserveAspectRatio="xMidYMid meet">
<metadata>
Created by potrace 1.14, written by Peter Selinger 2001-2017
</metadata>
<g transform="translate(0.000000,512.000000) scale(0.100000,-0.100000)"
fill="#000000" stroke="none">
<path d="M2938 4623 c-20 -2 -42 -11 -48 -19 -7 -8 -22 -14 -33 -14 -20 0 -65
-12 -115 -31 -12 -5 -75 -13 -140 -19 -64 -6 -125 -15 -134 -21 -19 -10 -177
-39 -214 -39 -14 0 -32 -4 -42 -9 -80 -40 -370 -108 -420 -98 -14 3 -26 -1
-29 -9 -3 -8 -14 -14 -26 -14 -70 0 -214 -90 -231 -145 -3 -11 -16 -25 -28
-30 -13 -6 -34 -30 -47 -54 -13 -24 -33 -53 -43 -63 -10 -10 -18 -23 -18 -29
0 -6 -9 -24 -21 -40 -11 -16 -17 -33 -14 -39 3 -5 3 -16 -1 -22 -12 -19 -9
-47 11 -112 14 -49 29 -71 84 -125 77 -78 117 -94 236 -97 80 -1 141 13 176
43 8 7 28 13 42 13 76 0 -13 -156 -115 -202 -22 -10 -46 -18 -53 -18 -7 0 -15
-4 -17 -8 -4 -10 -114 -62 -131 -62 -8 0 -29 -13 -47 -30 -18 -16 -36 -30 -39
-30 -3 0 -25 -18 -49 -39 -24 -22 -68 -52 -98 -68 -68 -35 -79 -56 -26 -48 35
6 70 19 136 51 15 7 43 16 61 20 38 7 186 -22 212 -41 16 -12 16 -14 0 -30
-10 -9 -29 -39 -42 -65 -13 -27 -28 -50 -32 -52 -9 -3 -73 -105 -73 -116 -1
-4 -19 -20 -40 -37 -21 -16 -39 -38 -40 -47 0 -10 -3 -18 -8 -18 -4 0 -22 -14
-41 -30 -34 -31 -87 -62 -131 -75 -14 -4 -32 -14 -41 -21 -20 -18 -236 -25
-247 -8 -8 12 -73 36 -80 30 -2 -3 5 -15 17 -27 12 -13 21 -26 21 -31 0 -4 16
-14 35 -22 19 -8 35 -20 35 -25 0 -6 6 -11 13 -11 8 0 24 -9 37 -20 13 -11 42
-25 64 -32 23 -6 45 -15 51 -20 5 -4 40 -8 78 -8 49 0 73 -4 84 -16 10 -10 23
-13 37 -9 37 13 96 17 96 8 0 -5 23 -6 53 -2 63 8 97 19 97 29 0 4 21 17 48
28 26 12 61 33 77 48 17 14 40 30 53 35 12 5 21 12 20 17 -2 4 14 23 35 41 20
18 37 28 37 22 0 -22 -30 -71 -44 -71 -21 0 -41 -29 -29 -41 12 -12 50 6 71
34 25 33 52 17 78 -47 13 -33 22 -68 19 -77 -4 -11 1 -22 14 -28 11 -6 23 -20
26 -32 4 -13 28 -30 59 -44 49 -22 85 -59 90 -92 1 -8 10 -23 19 -34 9 -10 17
-25 17 -32 0 -21 81 -86 120 -97 59 -17 147 -12 192 10 23 11 50 20 59 20 10
0 20 4 23 9 4 5 35 23 70 39 35 17 69 40 76 51 6 12 33 32 60 46 28 14 50 30
50 35 0 6 4 10 10 10 32 0 180 112 272 207 21 21 51 52 68 69 16 16 30 35 30
42 0 6 16 23 35 38 19 14 35 31 35 36 0 18 33 82 57 111 13 16 23 33 23 38 0
11 42 72 53 77 4 2 7 11 7 20 0 10 7 26 15 36 8 11 15 30 15 42 0 13 4 25 9
28 17 11 51 87 51 114 0 15 6 36 14 47 7 11 16 38 20 60 4 22 16 57 26 77 11
20 27 65 35 100 19 72 46 141 82 213 36 70 43 108 32 177 -11 68 -52 163 -74
172 -8 3 -15 12 -15 21 0 9 -32 48 -71 88 -40 40 -92 101 -116 137 -125 184
-210 254 -326 267 -29 3 -56 9 -62 13 -5 4 -32 11 -60 14 -27 4 -59 9 -70 10
-11 2 -37 1 -57 -1z m-61 -675 c81 -46 99 -76 108 -178 5 -66 -10 -209 -30
-282 -26 -95 -28 -103 -35 -108 -3 -3 -20 -40 -38 -83 -18 -42 -41 -88 -53
-101 -11 -13 -28 -37 -37 -54 -57 -101 -126 -169 -197 -192 -22 -7 -47 -18
-55 -25 -24 -18 -86 -33 -200 -46 -114 -13 -180 -7 -180 16 0 19 32 85 41 85
4 0 10 11 13 25 13 52 39 65 125 65 44 0 83 5 86 10 3 6 15 10 25 10 29 0 149
60 184 92 17 15 36 28 43 28 6 0 26 20 44 45 18 25 36 45 40 45 4 0 13 17 21
37 11 27 13 47 6 77 -5 22 -7 51 -3 63 5 23 -23 63 -45 63 -5 0 -10 6 -10 13
0 15 -41 40 -95 57 -22 7 -54 27 -71 45 -31 32 -31 34 -22 86 21 116 83 199
150 199 35 0 36 0 78 16 49 18 64 17 107 -8z"/>
<path d="M3933 2766 c-12 -9 -54 -27 -93 -40 -40 -14 -79 -31 -88 -39 -10 -8
-42 -23 -72 -33 -57 -19 -96 -43 -152 -94 -18 -17 -38 -30 -44 -30 -6 0 -26
-16 -45 -35 -19 -19 -39 -35 -46 -35 -12 0 -46 -28 -112 -92 -21 -21 -41 -38
-45 -38 -5 0 -51 -33 -103 -72 -52 -40 -115 -86 -139 -101 -24 -16 -44 -32
-44 -36 0 -4 -31 -19 -70 -32 -38 -13 -70 -27 -70 -31 0 -5 -16 -8 -35 -8 -19
0 -35 -3 -35 -7 0 -5 -18 -9 -40 -10 -22 -2 -49 -7 -59 -12 -34 -19 -91 -16
-296 13 -11 2 -27 6 -35 9 -62 25 -112 37 -156 37 -42 0 -55 -4 -77 -28 -15
-15 -27 -33 -27 -39 0 -6 -7 -16 -14 -23 -19 -15 -14 -104 8 -145 9 -16 16
-39 16 -50 0 -29 11 -44 140 -195 17 -19 38 -44 48 -55 27 -32 159 -116 200
-127 20 -6 43 -15 51 -22 19 -15 197 -14 213 2 7 7 20 12 30 12 52 0 218 111
218 146 0 6 9 19 21 30 12 10 30 38 41 62 13 27 29 44 44 48 32 8 118 -22 182
-65 30 -20 62 -40 71 -45 9 -5 40 -41 70 -80 50 -67 53 -73 47 -114 -9 -69
-26 -92 -96 -129 -74 -40 -95 -47 -234 -73 -142 -27 -509 -23 -679 8 -147 27
-167 32 -192 42 -11 5 -50 18 -87 30 -37 12 -93 39 -125 61 -32 21 -64 39 -70
39 -7 0 -18 9 -25 21 -7 11 -34 33 -61 49 -26 17 -47 37 -47 45 0 8 -5 15 -11
15 -15 0 -38 30 -39 50 0 8 -9 26 -20 40 -11 14 -20 35 -20 47 0 12 -8 24 -19
28 -11 3 -29 25 -40 48 -46 95 -136 97 -181 4 -41 -84 -59 -152 -61 -238 -2
-97 16 -258 31 -273 5 -5 10 -18 10 -27 0 -9 6 -22 14 -28 8 -7 18 -27 22 -44
7 -34 21 -61 43 -90 18 -21 36 -53 56 -94 8 -18 21 -36 29 -40 8 -4 23 -24 33
-43 11 -19 34 -44 51 -55 17 -11 31 -25 32 -30 0 -15 30 -38 68 -54 18 -8 37
-22 43 -32 5 -11 17 -19 27 -19 9 0 29 -6 43 -14 14 -7 47 -16 72 -20 26 -4
49 -11 52 -15 2 -5 40 -16 82 -25 43 -10 94 -21 113 -26 19 -5 76 -12 125 -16
50 -3 92 -10 95 -15 8 -12 467 -18 615 -9 183 12 566 70 590 90 8 6 47 20 87
30 113 29 136 37 164 59 15 12 33 21 40 21 20 0 76 32 102 58 13 13 37 28 53
34 16 5 29 14 29 20 0 5 21 31 48 57 78 78 142 173 142 211 0 10 8 26 17 36
14 14 17 37 18 132 0 84 -3 116 -12 119 -7 3 -13 10 -13 17 0 40 -106 146
-145 146 -7 0 -20 6 -27 14 -8 7 -59 24 -114 36 -96 22 -133 35 -144 50 -3 4
-21 16 -40 27 -19 11 -39 29 -45 40 -5 12 -19 26 -31 32 -12 5 -48 29 -81 53
-32 24 -77 52 -100 63 -24 10 -43 22 -43 27 0 4 -7 8 -15 8 -8 0 -15 -4 -15
-8 0 -5 -25 -10 -55 -11 -30 -1 -55 2 -55 7 0 4 -41 13 -92 20 -108 15 -124
24 -103 56 8 13 13 25 10 28 -3 3 4 27 16 54 12 27 23 58 24 68 1 10 9 24 18
31 9 6 19 24 23 41 9 35 19 46 62 64 29 11 35 11 42 -1 5 -8 4 -19 -3 -28 -10
-12 -7 -12 18 1 69 36 124 58 143 58 11 0 24 5 27 10 8 14 55 13 55 -1 0 -8 4
-8 13 -1 19 16 112 32 182 32 83 0 124 -18 182 -80 13 -14 36 -38 52 -55 36
-38 51 -67 51 -100 0 -39 -15 -61 -60 -86 -22 -13 -40 -26 -40 -30 0 -8 -44
-18 -125 -27 -47 -6 -55 -9 -37 -15 12 -5 30 -6 40 -3 10 3 38 6 62 7 63 1
221 27 247 41 17 8 26 8 37 -1 9 -8 16 -8 20 -2 4 6 17 4 34 -5 15 -7 37 -14
49 -14 12 0 24 -4 27 -9 6 -9 44 -16 148 -27 69 -8 164 18 173 47 4 11 14 23
24 29 45 23 63 129 46 265 -7 55 -16 79 -70 185 -16 30 -81 106 -123 143 -7 7
-28 27 -47 45 -19 17 -39 32 -45 32 -6 0 -21 9 -33 21 -29 27 -69 43 -159 65
-40 10 -76 22 -79 27 -4 5 -71 11 -150 14 -122 4 -147 2 -166 -11z"/>
<path d="M1220 2220 c-19 -5 -36 -13 -38 -19 -2 -6 -16 -11 -32 -11 -15 0 -33
-7 -40 -15 -7 -8 -17 -15 -22 -15 -9 0 -45 -33 -166 -153 -100 -99 -112 -112
-112 -124 0 -7 -16 -24 -35 -39 -19 -14 -35 -35 -35 -45 0 -10 -9 -23 -20 -29
-11 -6 -20 -16 -20 -23 0 -7 -14 -25 -30 -41 -17 -15 -38 -42 -47 -60 -9 -17
-19 -33 -24 -36 -20 -13 -26 -159 -9 -235 6 -27 15 -85 20 -128 5 -42 15 -101
23 -130 8 -28 18 -74 22 -102 4 -27 13 -61 20 -75 7 -14 18 -43 25 -65 34
-115 82 -173 181 -222 55 -27 135 -38 183 -24 47 12 116 82 139 141 10 25 27
62 38 82 23 45 24 106 3 213 -28 146 -35 262 -23 385 6 63 17 129 25 147 8 17
14 37 14 45 0 7 7 26 15 41 8 16 14 36 13 45 -6 76 4 110 50 183 26 42 55 84
65 94 17 17 17 18 0 37 -14 15 -14 21 -4 27 7 5 14 24 16 44 3 30 -2 40 -33
67 -56 50 -87 57 -162 40z"/>
<path d="M3403 2183 c-15 -5 -17 -23 -4 -23 5 0 11 7 15 15 3 8 4 15 3 14 -1
0 -8 -3 -14 -6z"/>
</g>
</svg>
